<svg xmlns="http://www.w3.org/2000/svg" width="900" height="220" viewBox="0 0 900 220">
  <defs>
    <linearGradient id="bg" x1="0%" y1="0%" x2="100%" y2="100%">
      <stop offset="0%" stop-color="#0b1220"/>
      <stop offset="55%" stop-color="#0f172a"/>
      <stop offset="100%" stop-color="#0b3b4f"/>
    </linearGradient>
    <linearGradient id="accent" x1="0%" y1="0%" x2="100%" y2="0%">
      <stop offset="0%" stop-color="#059669"/>
      <stop offset="50%" stop-color="#0ea5e9"/>
      <stop offset="100%" stop-color="#059669"/>
    </linearGradient>
    <linearGradient id="glow" x1="50%" y1="0%" x2="50%" y2="100%">
      <stop offset="0%" stop-color="#14b8a6" stop-opacity="0.22"/>
      <stop offset="100%" stop-color="#14b8a6" stop-opacity="0"/>
    </linearGradient>
    <pattern id="grid" width="28" height="28" patternUnits="userSpaceOnUse">
      <path d="M 28 0 L 0 0 0 28" fill="none" stroke="#ffffff" stroke-opacity="0.04" stroke-width="1"/>
    </pattern>
  </defs>

  <rect width="900" height="220" fill="url(#bg)"/>
  <rect width="900" height="220" fill="url(#grid)"/>
  <ellipse cx="760" cy="40" rx="180" ry="90" fill="url(#glow)"/>
  <ellipse cx="120" cy="180" rx="160" ry="70" fill="#0ea5e9" fill-opacity="0.08"/>

  <rect x="0" y="0" width="900" height="4" fill="url(#accent)"/>

  <rect x="285" y="36" width="330" height="28" rx="14" fill="#059669" fill-opacity="0.14" stroke="#059669" stroke-opacity="0.35"/>
  <text x="450" y="55" fill="#6ee7b7" font-family="Arial, Helvetica, sans-serif" font-size="12" font-weight="700" letter-spacing="2" text-anchor="middle">FULL STACK ENGINEER</text>

  <text x="450" y="108" fill="#ffffff" font-family="Arial, Helvetica, sans-serif" font-size="48" font-weight="700" text-anchor="middle">Abdullah Mumtaz</text>

  <text x="450" y="142" fill="#cbd5e1" font-family="Arial, Helvetica, sans-serif" font-size="17" font-weight="500" text-anchor="middle">Web | App | Automation | SaaS</text>

  <g font-family="Arial, Helvetica, sans-serif" font-size="11" font-weight="600" text-anchor="middle">
    <rect x="238" y="158" width="118" height="26" rx="13" fill="#111827" stroke="#334155"/>
    <text x="297" y="175" fill="#94a3b8">React / Next.js</text>

    <rect x="366" y="158" width="98" height="26" rx="13" fill="#111827" stroke="#334155"/>
    <text x="415" y="175" fill="#94a3b8">Android</text>

    <rect x="474" y="158" width="118" height="26" rx="13" fill="#111827" stroke="#334155"/>
    <text x="533" y="175" fill="#94a3b8">Automation</text>

    <rect x="602" y="158" width="60" height="26" rx="13" fill="#111827" stroke="#334155"/>
    <text x="632" y="175" fill="#94a3b8">Cloud</text>
  </g>

  <path d="M0,198 C140,176 260,214 400,196 C540,178 660,210 900,188 L900,220 L0,220 Z" fill="#ffffff" fill-opacity="0.04"/>
  <path d="M0,208 C160,188 320,216 480,200 C640,184 780,212 900,198 L900,220 L0,220 Z" fill="url(#accent)" fill-opacity="0.12"/>
</svg>
